<?xml version="1.0" encoding="UTF-8"?><svg xmlns="http://www.w3.org/2000/svg" xmlns:xlink="http://www.w3.org/1999/xlink" height="1863.9" preserveAspectRatio="xMidYMid meet" version="1.0" viewBox="367.9 294.3 1569.6 1863.9" width="1569.6" zoomAndPan="magnify"><g fill="#040606" id="change1_1"><path d="M 613.125 294.296875 L 613.125 2158.199219 L 711.226562 2158.199219 L 711.226562 392.398438 L 1839.382812 392.398438 L 1839.382812 2158.199219 L 1937.46875 2158.199219 L 1937.46875 294.296875 L 613.125 294.296875" fill="inherit"/><path d="M 760.246094 2158.199219 L 1103.597656 2158.199219 L 1103.597656 441.453125 L 760.246094 441.453125 L 760.246094 2158.199219" fill="inherit"/><path d="M 1445.730469 2158.199219 L 1790.324219 2158.199219 L 1790.324219 441.453125 L 1445.730469 441.453125 L 1445.730469 2158.199219" fill="inherit"/><path d="M 465.492188 1319.78125 C 492.605469 1319.78125 514.542969 1341.730469 514.542969 1368.828125 C 514.542969 1395.929688 492.605469 1417.878906 465.492188 1417.878906 C 438.382812 1417.878906 416.445312 1395.929688 416.445312 1368.828125 C 416.445312 1341.730469 438.382812 1319.78125 465.492188 1319.78125 Z M 465.492188 1172.628906 C 492.605469 1172.628906 514.542969 1194.578125 514.542969 1221.679688 C 514.542969 1248.78125 492.605469 1270.730469 465.492188 1270.730469 C 438.382812 1270.730469 416.445312 1248.78125 416.445312 1221.679688 C 416.445312 1194.578125 438.382812 1172.628906 465.492188 1172.628906 Z M 367.875 1471.5 L 564.074219 1471.5 L 564.074219 1128.148438 L 367.875 1128.148438 L 367.875 1471.5" fill="inherit"/></g></svg>