<?xml version="1.0" encoding="UTF-8"?><svg xmlns="http://www.w3.org/2000/svg" xmlns:xlink="http://www.w3.org/1999/xlink" height="1863.9" preserveAspectRatio="xMidYMid meet" version="1.0" viewBox="404.2 294.3 1569.6 1863.9" width="1569.6" zoomAndPan="magnify"><g fill="#040606" id="change1_1"><path d="M 649.4375 294.296875 L 649.4375 2158.199219 L 747.539062 2158.199219 L 747.539062 392.398438 L 1875.6875 392.398438 L 1875.6875 2158.199219 L 1973.789062 2158.199219 L 1973.789062 294.296875 L 649.4375 294.296875" fill="inherit"/><path d="M 796.585938 2158.199219 L 1287.082031 2158.199219 L 1287.082031 441.453125 L 796.585938 441.453125 L 796.585938 2158.199219" fill="inherit"/><path d="M 1336.136719 2158.199219 L 1826.632812 2158.199219 L 1826.632812 441.453125 L 1336.136719 441.453125 L 1336.136719 2158.199219" fill="inherit"/><path d="M 501.8125 1319.78125 C 528.90625 1319.78125 550.859375 1341.730469 550.859375 1368.828125 C 550.859375 1395.929688 528.90625 1417.878906 501.8125 1417.878906 C 474.710938 1417.878906 452.761719 1395.929688 452.761719 1368.828125 C 452.761719 1341.730469 474.710938 1319.78125 501.8125 1319.78125 Z M 501.8125 1172.628906 C 528.90625 1172.628906 550.859375 1194.578125 550.859375 1221.679688 C 550.859375 1248.78125 528.90625 1270.730469 501.8125 1270.730469 C 474.710938 1270.730469 452.761719 1248.78125 452.761719 1221.679688 C 452.761719 1194.578125 474.710938 1172.628906 501.8125 1172.628906 Z M 404.1875 1471.5 L 600.386719 1471.5 L 600.386719 1128.148438 L 404.1875 1128.148438 L 404.1875 1471.5" fill="inherit"/></g></svg>